<?xml version="1.0" encoding="UTF-8"?>
<svg xmlns="http://www.w3.org/2000/svg" xmlns:xlink="http://www.w3.org/1999/xlink" width="288px" height="288px" viewBox="0 0 288 288" version="1.1">
  <metadata xmlns:gridsvg="http://www.stat.auckland.ac.nz/~paul/R/gridSVG/">
    <gridsvg:generator name="gridSVG" version="1.4-0" time="2014-09-25 11:59:05"/>
    <gridsvg:argument name="name" value="piePipe.svg"/>
    <gridsvg:argument name="exportCoords" value="none"/>
    <gridsvg:argument name="exportMappings" value="none"/>
    <gridsvg:argument name="exportJS" value="none"/>
    <gridsvg:argument name="res" value="72"/>
    <gridsvg:argument name="prefix" value=""/>
    <gridsvg:argument name="addClasses" value="FALSE"/>
    <gridsvg:argument name="indent" value="TRUE"/>
    <gridsvg:argument name="htmlWrapper" value="FALSE"/>
    <gridsvg:argument name="usePaths" value="vpPaths"/>
    <gridsvg:argument name="uniqueNames" value="TRUE"/>
    <gridsvg:separator name="id.sep" value="."/>
    <gridsvg:separator name="gPath.sep" value="::"/>
    <gridsvg:separator name="vpPath.sep" value="::"/>
  </metadata>
  <g transform="translate(0, 288) scale(1, -1)">
    <g id="gridSVG" fill="none" stroke="rgb(0,0,0)" stroke-dasharray="none" stroke-width="0.75" font-size="12" font-family="Helvetica, Arial, FreeSans, Liberation Sans, Nimbus Sans L, sans-serif" opacity="1" stroke-linecap="round" stroke-linejoin="round" stroke-miterlimit="10" stroke-opacity="1" fill-opacity="0" font-weight="normal" font-style="normal">
      <g id="graphSizeVP.1">
        <g id="graphSizeVP::graphScaleVP.1">
          <g id="edge-nonvoters~tidy.1">
            <g id="curve-nonvoters~tidy-1.1">
              <polyline id="curve-nonvoters~tidy-1.1.1" points="96.18,197.8 97.91,195.84 99.73,193.75 101.67,191.51 103.72,189.12 105.86,186.6 108.06,183.99 110.29,181.33 112.49,178.68 114.63,176.1 116.67,173.6 118.6,171.23 120.42,168.98 122.08,166.91" stroke="rgb(0,0,0)" stroke-width="0.75" stroke-dasharray="none" stroke-opacity="1" fill="none"/>
            </g>
            <g id="arrowhead-nonvoters~tidy.1">
              <defs>
                <marker id="arrowhead-nonvoters~tidy.1.1.markerStart" refX="-9.36" refY="-3.41" overflow="visible" markerUnits="userSpaceOnUse" markerWidth="9.36" markerHeight="6.81" orient="auto">
                  <path d="M 0 0 L 9.36 3.41 L 0 6.81" stroke="rgb(0,0,0)" fill="none" stroke-width="0.75" stroke-dasharray="none" stroke-opacity="1" fill-opacity="1" transform="rotate(180)"/>
                </marker>
                <marker id="arrowhead-nonvoters~tidy.1.1.markerEnd" refX="9.36" refY="3.41" overflow="visible" markerUnits="userSpaceOnUse" markerWidth="9.36" markerHeight="6.81" orient="auto">
                  <path d="M 0 0 L 9.36 3.41 L 0 6.81" stroke="rgb(0,0,0)" fill="none" stroke-width="0.75" stroke-dasharray="none" stroke-opacity="1" fill-opacity="1"/>
                </marker>
              </defs>
              <polyline id="arrowhead-nonvoters~tidy.1.1" points="122.08,166.91 129.06,159.94" marker-end="url(#arrowhead-nonvoters~tidy.1.1.markerEnd)" stroke="rgb(0,0,0)" fill="none" stroke-width="0.75" stroke-dasharray="none" stroke-opacity="1" fill-opacity="1"/>
            </g>
          </g>
          <g id="edge-tidy~plot.1">
            <g id="curve-tidy~plot-1.1">
              <polyline id="curve-tidy~plot-1.1.1" points="128.06,128.06 126.87,125.93 125.61,123.7 124.27,121.34 122.86,118.86 121.38,116.27 119.88,113.61 118.39,110.93 116.93,108.29 115.54,105.73 114.22,103.26 112.98,100.87 112.12,99.17" stroke="rgb(0,0,0)" stroke-width="0.75" stroke-dasharray="none" stroke-opacity="1" fill="none"/>
            </g>
            <g id="arrowhead-tidy~plot.1">
              <defs>
                <marker id="arrowhead-tidy~plot.1.1.markerStart" refX="-9.36" refY="-3.41" overflow="visible" markerUnits="userSpaceOnUse" markerWidth="9.36" markerHeight="6.81" orient="auto">
                  <path d="M 0 0 L 9.36 3.41 L 0 6.81" stroke="rgb(0,0,0)" fill="none" stroke-width="0.75" stroke-dasharray="none" stroke-opacity="1" fill-opacity="1" transform="rotate(180)"/>
                </marker>
                <marker id="arrowhead-tidy~plot.1.1.markerEnd" refX="9.36" refY="3.41" overflow="visible" markerUnits="userSpaceOnUse" markerWidth="9.36" markerHeight="6.81" orient="auto">
                  <path d="M 0 0 L 9.36 3.41 L 0 6.81" stroke="rgb(0,0,0)" fill="none" stroke-width="0.75" stroke-dasharray="none" stroke-opacity="1" fill-opacity="1"/>
                </marker>
              </defs>
              <polyline id="arrowhead-tidy~plot.1.1" points="112.12,99.17 108.13,90.2" marker-end="url(#arrowhead-tidy~plot.1.1.markerEnd)" stroke="rgb(0,0,0)" fill="none" stroke-width="0.75" stroke-dasharray="none" stroke-opacity="1" fill-opacity="1"/>
            </g>
          </g>
          <g id="edge-tidy~plot.2">
            <g id="curve-tidy~plot-1.2">
              <polyline id="curve-tidy~plot-1.2.1" points="139.02,126.07 138.07,123.93 137.05,121.66 135.94,119.24 134.75,116.67 133.47,113.98 132.13,111.2 130.75,108.42 129.34,105.67 127.94,103.02 126.56,100.48 125.18,98.05 124.07,96.18" stroke="rgb(0,0,0)" stroke-width="0.75" stroke-dasharray="none" stroke-opacity="1" fill="none"/>
            </g>
            <g id="arrowhead-tidy~plot.2">
              <defs>
                <marker id="arrowhead-tidy~plot.2.1.markerStart" refX="-9.36" refY="-3.41" overflow="visible" markerUnits="userSpaceOnUse" markerWidth="9.36" markerHeight="6.81" orient="auto">
                  <path d="M 0 0 L 9.36 3.41 L 0 6.81" stroke="rgb(0,0,0)" fill="none" stroke-width="0.75" stroke-dasharray="none" stroke-opacity="1" fill-opacity="1" transform="rotate(180)"/>
                </marker>
                <marker id="arrowhead-tidy~plot.2.1.markerEnd" refX="9.36" refY="3.41" overflow="visible" markerUnits="userSpaceOnUse" markerWidth="9.36" markerHeight="6.81" orient="auto">
                  <path d="M 0 0 L 9.36 3.41 L 0 6.81" stroke="rgb(0,0,0)" fill="none" stroke-width="0.75" stroke-dasharray="none" stroke-opacity="1" fill-opacity="1"/>
                </marker>
              </defs>
              <polyline id="arrowhead-tidy~plot.2.1" points="124.07,96.18 119.09,87.21" marker-end="url(#arrowhead-tidy~plot.2.1.markerEnd)" stroke="rgb(0,0,0)" fill="none" stroke-width="0.75" stroke-dasharray="none" stroke-opacity="1" fill-opacity="1"/>
            </g>
          </g>
          <g id="edge-tidy~pie.1">
            <g id="curve-tidy~pie-1.1">
              <polyline id="curve-tidy~pie-1.1.1" points="144,126.07 144.95,123.93 145.97,121.66 147.08,119.24 148.27,116.67 149.55,113.98 150.89,111.2 152.27,108.42 153.68,105.67 155.08,103.02 156.46,100.48 157.84,98.05 158.94,96.18" stroke="rgb(0,0,0)" stroke-width="0.75" stroke-dasharray="none" stroke-opacity="1" fill="none"/>
            </g>
            <g id="arrowhead-tidy~pie.1">
              <defs>
                <marker id="arrowhead-tidy~pie.1.1.markerStart" refX="-9.36" refY="-3.41" overflow="visible" markerUnits="userSpaceOnUse" markerWidth="9.36" markerHeight="6.81" orient="auto">
                  <path d="M 0 0 L 9.36 3.41 L 0 6.81" stroke="rgb(0,0,0)" fill="none" stroke-width="0.75" stroke-dasharray="none" stroke-opacity="1" fill-opacity="1" transform="rotate(180)"/>
                </marker>
                <marker id="arrowhead-tidy~pie.1.1.markerEnd" refX="9.36" refY="3.41" overflow="visible" markerUnits="userSpaceOnUse" markerWidth="9.36" markerHeight="6.81" orient="auto">
                  <path d="M 0 0 L 9.36 3.41 L 0 6.81" stroke="rgb(0,0,0)" fill="none" stroke-width="0.75" stroke-dasharray="none" stroke-opacity="1" fill-opacity="1"/>
                </marker>
              </defs>
              <polyline id="arrowhead-tidy~pie.1.1" points="158.94,96.18 163.93,87.21" marker-end="url(#arrowhead-tidy~pie.1.1.markerEnd)" stroke="rgb(0,0,0)" fill="none" stroke-width="0.75" stroke-dasharray="none" stroke-opacity="1" fill-opacity="1"/>
            </g>
          </g>
          <g id="edge-tidy~pie.2">
            <g id="curve-tidy~pie-1.2">
              <polyline id="curve-tidy~pie-1.2.1" points="154.96,128.06 156.15,125.93 157.41,123.7 158.75,121.34 160.16,118.86 161.63,116.27 163.14,113.61 164.63,110.93 166.09,108.29 167.48,105.73 168.8,103.26 170.04,100.87 170.9,99.17" stroke="rgb(0,0,0)" stroke-width="0.75" stroke-dasharray="none" stroke-opacity="1" fill="none"/>
            </g>
            <g id="arrowhead-tidy~pie.2">
              <defs>
                <marker id="arrowhead-tidy~pie.2.1.markerStart" refX="-9.36" refY="-3.41" overflow="visible" markerUnits="userSpaceOnUse" markerWidth="9.36" markerHeight="6.81" orient="auto">
                  <path d="M 0 0 L 9.36 3.41 L 0 6.81" stroke="rgb(0,0,0)" fill="none" stroke-width="0.75" stroke-dasharray="none" stroke-opacity="1" fill-opacity="1" transform="rotate(180)"/>
                </marker>
                <marker id="arrowhead-tidy~pie.2.1.markerEnd" refX="9.36" refY="3.41" overflow="visible" markerUnits="userSpaceOnUse" markerWidth="9.36" markerHeight="6.81" orient="auto">
                  <path d="M 0 0 L 9.36 3.41 L 0 6.81" stroke="rgb(0,0,0)" fill="none" stroke-width="0.75" stroke-dasharray="none" stroke-opacity="1" fill-opacity="1"/>
                </marker>
              </defs>
              <polyline id="arrowhead-tidy~pie.2.1" points="170.9,99.17 174.88,90.2" marker-end="url(#arrowhead-tidy~pie.2.1.markerEnd)" stroke="rgb(0,0,0)" fill="none" stroke-width="0.75" stroke-dasharray="none" stroke-opacity="1" fill-opacity="1"/>
            </g>
          </g>
          <g id="edge-population~tidy.1">
            <g id="curve-population~tidy-1.1">
              <polyline id="curve-population~tidy-1.1.1" points="186.84,197.8 185.12,195.84 183.34,193.75 181.46,191.51 179.49,189.12 177.42,186.6 175.29,183.99 173.12,181.33 170.95,178.68 168.81,176.1 166.73,173.6 164.72,171.23 162.77,168.98 160.94,166.91" stroke="rgb(0,0,0)" stroke-width="0.75" stroke-dasharray="none" stroke-opacity="1" fill="none"/>
            </g>
            <g id="arrowhead-population~tidy.1">
              <defs>
                <marker id="arrowhead-population~tidy.1.1.markerStart" refX="-9.36" refY="-3.41" overflow="visible" markerUnits="userSpaceOnUse" markerWidth="9.36" markerHeight="6.81" orient="auto">
                  <path d="M 0 0 L 9.36 3.41 L 0 6.81" stroke="rgb(0,0,0)" fill="none" stroke-width="0.75" stroke-dasharray="none" stroke-opacity="1" fill-opacity="1" transform="rotate(180)"/>
                </marker>
                <marker id="arrowhead-population~tidy.1.1.markerEnd" refX="9.36" refY="3.41" overflow="visible" markerUnits="userSpaceOnUse" markerWidth="9.36" markerHeight="6.81" orient="auto">
                  <path d="M 0 0 L 9.36 3.41 L 0 6.81" stroke="rgb(0,0,0)" fill="none" stroke-width="0.75" stroke-dasharray="none" stroke-opacity="1" fill-opacity="1"/>
                </marker>
              </defs>
              <polyline id="arrowhead-population~tidy.1.1" points="160.94,166.91 153.96,159.94" marker-end="url(#arrowhead-population~tidy.1.1.markerEnd)" stroke="rgb(0,0,0)" fill="none" stroke-width="0.75" stroke-dasharray="none" stroke-opacity="1" fill-opacity="1"/>
            </g>
          </g>
          <g id="nonvoters.1">
            <g id="box-nonvoters.1">
              <polygon id="box-nonvoters.1.1" points="132.04,215.73 131.95,216.86 131.66,217.98 131.18,219.09 130.51,220.19 129.66,221.27 128.62,222.33 127.4,223.37 126.01,224.37 124.45,225.34 122.72,226.27 120.84,227.16 118.81,228.01 116.65,228.8 114.34,229.55 111.92,230.24 109.39,230.87 106.75,231.45 104.01,231.96 101.2,232.4 98.31,232.79 95.37,233.1 92.38,233.35 89.35,233.52 86.29,233.63 83.23,233.66 80.16,233.63 77.11,233.52 74.08,233.35 71.09,233.1 68.14,232.79 65.26,232.4 62.44,231.96 59.71,231.45 57.07,230.87 54.53,230.24 52.11,229.55 49.81,228.8 47.64,228.01 45.61,227.16 43.73,226.27 42.01,225.34 40.45,224.37 39.06,223.37 37.84,222.33 36.8,221.27 35.94,220.19 35.28,219.09 34.8,217.98 34.51,216.86 34.41,215.73 34.51,214.61 34.8,213.48 35.28,212.37 35.94,211.27 36.8,210.19 37.84,209.13 39.06,208.1 40.45,207.09 42.01,206.12 43.73,205.19 45.61,204.3 47.64,203.46 49.81,202.66 52.11,201.91 54.53,201.22 57.07,200.59 59.71,200.02 62.44,199.5 65.26,199.06 68.14,198.68 71.09,198.36 74.08,198.12 77.11,197.94 80.16,197.83 83.23,197.8 86.29,197.83 89.35,197.94 92.38,198.12 95.37,198.36 98.31,198.68 101.2,199.06 104.01,199.5 106.75,200.02 109.39,200.59 111.92,201.22 114.34,201.91 116.65,202.66 118.81,203.46 120.84,204.3 122.72,205.19 124.45,206.12 126.01,207.09 127.4,208.1 128.62,209.13 129.66,210.19 130.51,211.27 131.18,212.37 131.66,213.48 131.95,214.61 132.04,215.73" stroke="rgb(0,0,0)" fill="none" stroke-opacity="1" fill-opacity="0"/>
            </g>
            <g id="label-nonvoters.1">
              <g id="label-nonvoters.1.1" transform="translate(83.23, 215.73)" stroke-width="0.1">
                <g id="label-nonvoters.1.1.scale" transform="scale(1, -1)">
                  <text x="0" y="0" id="label-nonvoters.1.1.text" text-anchor="middle" stroke="rgb(0,0,0)" font-size="14" fill="rgb(0,0,0)" stroke-opacity="1" fill-opacity="1">
                    <tspan id="label-nonvoters.1.1.tspan.1" dy="5.03" x="0">nonvoters</tspan>
                  </text>
                </g>
              </g>
            </g>
          </g>
          <g id="tidy.1">
            <g id="box-tidy.1">
              <polygon id="box-tidy.1.1" points="168.91,144 168.85,145.13 168.69,146.25 168.43,147.36 168.06,148.46 167.59,149.54 167.02,150.6 166.35,151.64 165.58,152.64 164.72,153.61 163.77,154.54 162.73,155.43 161.62,156.28 160.42,157.07 159.15,157.82 157.82,158.51 156.42,159.14 154.97,159.71 153.46,160.23 151.91,160.67 150.32,161.06 148.7,161.37 147.05,161.62 145.38,161.79 143.7,161.9 142.01,161.93 140.32,161.9 138.64,161.79 136.97,161.62 135.32,161.37 133.7,161.06 132.11,160.67 130.55,160.23 129.05,159.71 127.59,159.14 126.2,158.51 124.86,157.82 123.59,157.07 122.4,156.28 121.28,155.43 120.25,154.54 119.3,153.61 118.44,152.64 117.67,151.64 117,150.6 116.42,149.54 115.95,148.46 115.58,147.36 115.32,146.25 115.16,145.13 115.11,144 115.16,142.87 115.32,141.75 115.58,140.64 115.95,139.54 116.42,138.46 117,137.4 117.67,136.36 118.44,135.36 119.3,134.39 120.25,133.46 121.28,132.57 122.4,131.72 123.59,130.93 124.86,130.18 126.2,129.49 127.59,128.86 129.05,128.29 130.55,127.77 132.11,127.33 133.7,126.94 135.32,126.63 136.97,126.38 138.64,126.21 140.32,126.1 142.01,126.07 143.7,126.1 145.38,126.21 147.05,126.38 148.7,126.63 150.32,126.94 151.91,127.33 153.46,127.77 154.97,128.29 156.42,128.86 157.82,129.49 159.15,130.18 160.42,130.93 161.62,131.72 162.73,132.57 163.77,133.46 164.72,134.39 165.58,135.36 166.35,136.36 167.02,137.4 167.59,138.46 168.06,139.54 168.43,140.64 168.69,141.75 168.85,142.87 168.91,144" stroke="rgb(0,0,0)" fill="none" stroke-opacity="1" fill-opacity="0"/>
            </g>
            <g id="label-tidy.1">
              <g id="label-tidy.1.1" transform="translate(142.01, 144)" stroke-width="0.1">
                <g id="label-tidy.1.1.scale" transform="scale(1, -1)">
                  <text x="0" y="0" id="label-tidy.1.1.text" text-anchor="middle" stroke="rgb(0,0,0)" font-size="14" fill="rgb(0,0,0)" stroke-opacity="1" fill-opacity="1">
                    <tspan id="label-tidy.1.1.tspan.1" dy="5.03" x="0">tidy</tspan>
                  </text>
                </g>
              </g>
            </g>
          </g>
          <g id="population.1">
            <g id="box-population.1">
              <polygon id="box-population.1.1" points="253.59,215.73 253.49,216.86 253.18,217.98 252.67,219.09 251.96,220.19 251.05,221.27 249.95,222.33 248.66,223.37 247.18,224.37 245.52,225.34 243.7,226.27 241.7,227.16 239.55,228.01 237.25,228.8 234.81,229.55 232.23,230.24 229.54,230.87 226.74,231.45 223.84,231.96 220.85,232.4 217.79,232.79 214.67,233.1 211.49,233.35 208.28,233.52 205.04,233.63 201.78,233.66 198.53,233.63 195.29,233.52 192.08,233.35 188.9,233.1 185.77,232.79 182.71,232.4 179.73,231.96 176.83,231.45 174.02,230.87 171.33,230.24 168.76,229.55 166.32,228.8 164.02,228.01 161.87,227.16 159.87,226.27 158.04,225.34 156.39,224.37 154.91,223.37 153.62,222.33 152.51,221.27 151.61,220.19 150.9,219.09 150.39,217.98 150.08,216.86 149.98,215.73 150.08,214.61 150.39,213.48 150.9,212.37 151.61,211.27 152.51,210.19 153.62,209.13 154.91,208.1 156.39,207.09 158.04,206.12 159.87,205.19 161.87,204.3 164.02,203.46 166.32,202.66 168.76,201.91 171.33,201.22 174.02,200.59 176.83,200.02 179.73,199.5 182.71,199.06 185.77,198.68 188.9,198.36 192.08,198.12 195.29,197.94 198.53,197.83 201.78,197.8 205.04,197.83 208.28,197.94 211.49,198.12 214.67,198.36 217.79,198.68 220.85,199.06 223.84,199.5 226.74,200.02 229.54,200.59 232.23,201.22 234.81,201.91 237.25,202.66 239.55,203.46 241.7,204.3 243.7,205.19 245.52,206.12 247.18,207.09 248.66,208.1 249.95,209.13 251.05,210.19 251.96,211.27 252.67,212.37 253.18,213.48 253.49,214.61 253.59,215.73" stroke="rgb(0,0,0)" fill="none" stroke-opacity="1" fill-opacity="0"/>
            </g>
            <g id="label-population.1">
              <g id="label-population.1.1" transform="translate(201.78, 215.73)" stroke-width="0.1">
                <g id="label-population.1.1.scale" transform="scale(1, -1)">
                  <text x="0" y="0" id="label-population.1.1.text" text-anchor="middle" stroke="rgb(0,0,0)" font-size="14" fill="rgb(0,0,0)" stroke-opacity="1" fill-opacity="1">
                    <tspan id="label-population.1.1.tspan.1" dy="5.03" x="0">population</tspan>
                  </text>
                </g>
              </g>
            </g>
          </g>
          <g id="plot.1">
            <g id="box-plot.1">
              <polygon id="box-plot.1.1" points="133.04,72.27 132.99,73.39 132.83,74.52 132.56,75.63 132.2,76.73 131.72,77.81 131.15,78.87 130.48,79.9 129.71,80.91 128.85,81.88 127.9,82.81 126.87,83.7 125.75,84.54 124.56,85.34 123.29,86.09 121.95,86.78 120.56,87.41 119.1,87.98 117.6,88.5 116.04,88.94 114.45,89.32 112.83,89.64 111.18,89.88 109.51,90.06 107.83,90.17 106.14,90.2 104.45,90.17 102.77,90.06 101.1,89.88 99.45,89.64 97.83,89.32 96.24,88.94 94.69,88.5 93.18,87.98 91.73,87.41 90.33,86.78 89,86.09 87.73,85.34 86.53,84.54 85.42,83.7 84.38,82.81 83.43,81.88 82.57,80.91 81.8,79.9 81.13,78.87 80.56,77.81 80.09,76.73 79.72,75.63 79.45,74.52 79.3,73.39 79.24,72.27 79.3,71.14 79.45,70.02 79.72,68.91 80.09,67.81 80.56,66.73 81.13,65.67 81.8,64.63 82.57,63.63 83.43,62.66 84.38,61.73 85.42,60.84 86.53,59.99 87.73,59.2 89,58.45 90.33,57.76 91.73,57.13 93.18,56.55 94.69,56.04 96.24,55.6 97.83,55.21 99.45,54.9 101.1,54.65 102.77,54.48 104.45,54.37 106.14,54.34 107.83,54.37 109.51,54.48 111.18,54.65 112.83,54.9 114.45,55.21 116.04,55.6 117.6,56.04 119.1,56.55 120.56,57.13 121.95,57.76 123.29,58.45 124.56,59.2 125.75,59.99 126.87,60.84 127.9,61.73 128.85,62.66 129.71,63.63 130.48,64.63 131.15,65.67 131.72,66.73 132.2,67.81 132.56,68.91 132.83,70.02 132.99,71.14 133.04,72.27" stroke="rgb(0,0,0)" fill="none" stroke-opacity="1" fill-opacity="0"/>
            </g>
            <g id="label-plot.1">
              <g id="label-plot.1.1" transform="translate(106.14, 72.27)" stroke-width="0.1">
                <g id="label-plot.1.1.scale" transform="scale(1, -1)">
                  <text x="0" y="0" id="label-plot.1.1.text" text-anchor="middle" stroke="rgb(0,0,0)" font-size="14" fill="rgb(0,0,0)" stroke-opacity="1" fill-opacity="1">
                    <tspan id="label-plot.1.1.tspan.1" dy="5.03" x="0">plot</tspan>
                  </text>
                </g>
              </g>
            </g>
          </g>
          <g id="pie.1">
            <g id="box-pie.1">
              <polygon id="box-pie.1.1" points="204.77,72.27 204.72,73.39 204.56,74.52 204.3,75.63 203.93,76.73 203.46,77.81 202.88,78.87 202.21,79.9 201.44,80.91 200.58,81.88 199.63,82.81 198.6,83.7 197.48,84.54 196.29,85.34 195.02,86.09 193.68,86.78 192.29,87.41 190.83,87.98 189.33,88.5 187.78,88.94 186.19,89.32 184.56,89.64 182.91,89.88 181.24,90.06 179.56,90.17 177.87,90.2 176.18,90.17 174.5,90.06 172.83,89.88 171.18,89.64 169.56,89.32 167.97,88.94 166.42,88.5 164.91,87.98 163.46,87.41 162.06,86.78 160.73,86.09 159.46,85.34 158.26,84.54 157.15,83.7 156.11,82.81 155.16,81.88 154.3,80.91 153.53,79.9 152.86,78.87 152.29,77.81 151.82,76.73 151.45,75.63 151.19,74.52 151.03,73.39 150.97,72.27 151.03,71.14 151.19,70.02 151.45,68.91 151.82,67.81 152.29,66.73 152.86,65.67 153.53,64.63 154.3,63.63 155.16,62.66 156.11,61.73 157.15,60.84 158.26,59.99 159.46,59.2 160.73,58.45 162.06,57.76 163.46,57.13 164.91,56.55 166.42,56.04 167.97,55.6 169.56,55.21 171.18,54.9 172.83,54.65 174.5,54.48 176.18,54.37 177.87,54.34 179.56,54.37 181.24,54.48 182.91,54.65 184.56,54.9 186.19,55.21 187.78,55.6 189.33,56.04 190.83,56.55 192.29,57.13 193.68,57.76 195.02,58.45 196.29,59.2 197.48,59.99 198.6,60.84 199.63,61.73 200.58,62.66 201.44,63.63 202.21,64.63 202.88,65.67 203.46,66.73 203.93,67.81 204.3,68.91 204.56,70.02 204.72,71.14 204.77,72.27" stroke="rgb(0,0,0)" fill="rgb(0,255,0)" stroke-opacity="1" fill-opacity="1"/>
            </g>
            <g id="label-pie.1">
              <g id="label-pie.1.1" transform="translate(177.87, 72.27)" stroke-width="0.1">
                <g id="label-pie.1.1.scale" transform="scale(1, -1)">
                  <text x="0" y="0" id="label-pie.1.1.text" text-anchor="middle" stroke="rgb(0,0,0)" font-size="14" fill="rgb(0,0,0)" stroke-opacity="1" fill-opacity="1">
                    <tspan id="label-pie.1.1.tspan.1" dy="5.03" x="0">pie</tspan>
                  </text>
                </g>
              </g>
            </g>
          </g>
        </g>
      </g>
    </g>
  </g>
</svg>