<?xml version="1.0" encoding="UTF-8"?>
<svg xmlns="http://www.w3.org/2000/svg" xmlns:xlink="http://www.w3.org/1999/xlink" width="288px" height="288px" viewBox="0 0 288 288" version="1.1">
  <metadata xmlns:gridsvg="http://www.stat.auckland.ac.nz/~paul/R/gridSVG/">
    <gridsvg:generator name="gridSVG" version="1.4-0" time="2014-09-25 15:40:23"/>
    <gridsvg:argument name="name" value="plotPipe.svg"/>
    <gridsvg:argument name="exportCoords" value="none"/>
    <gridsvg:argument name="exportMappings" value="none"/>
    <gridsvg:argument name="exportJS" value="none"/>
    <gridsvg:argument name="res" value="72"/>
    <gridsvg:argument name="prefix" value=""/>
    <gridsvg:argument name="addClasses" value="FALSE"/>
    <gridsvg:argument name="indent" value="TRUE"/>
    <gridsvg:argument name="htmlWrapper" value="FALSE"/>
    <gridsvg:argument name="usePaths" value="vpPaths"/>
    <gridsvg:argument name="uniqueNames" value="TRUE"/>
    <gridsvg:separator name="id.sep" value="."/>
    <gridsvg:separator name="gPath.sep" value="::"/>
    <gridsvg:separator name="vpPath.sep" value="::"/>
  </metadata>
  <g transform="translate(0, 288) scale(1, -1)">
    <g id="gridSVG" fill="none" stroke="rgb(0,0,0)" stroke-dasharray="none" stroke-width="0.75" font-size="12" font-family="Helvetica, Arial, FreeSans, Liberation Sans, Nimbus Sans L, sans-serif" opacity="1" stroke-linecap="round" stroke-linejoin="round" stroke-miterlimit="10" stroke-opacity="1" fill-opacity="0" font-weight="normal" font-style="normal">
      <g id="graphSizeVP.1">
        <g id="graphSizeVP::graphScaleVP.1">
          <g id="edge-nonvoters~tidy.1">
            <g id="curve-nonvoters~tidy-1.1">
              <polyline id="curve-nonvoters~tidy-1.1.1" points="96.18,197.8 97.91,195.84 99.73,193.75 101.67,191.51 103.72,189.12 105.86,186.6 108.06,183.99 110.29,181.33 112.49,178.68 114.63,176.1 116.67,173.6 118.6,171.23 120.42,168.98 122.08,166.91" stroke="rgb(0,0,0)" stroke-width="0.75" stroke-dasharray="none" stroke-opacity="1" fill="none"/>
            </g>
            <g id="arrowhead-nonvoters~tidy.1">
              <defs>
                <marker id="arrowhead-nonvoters~tidy.1.1.markerStart" refX="-9.36" refY="-3.41" overflow="visible" markerUnits="userSpaceOnUse" markerWidth="9.36" markerHeight="6.81" orient="auto">
                  <path d="M 0 0 L 9.36 3.41 L 0 6.81" stroke="rgb(0,0,0)" fill="none" stroke-width="0.75" stroke-dasharray="none" stroke-opacity="1" fill-opacity="1" transform="rotate(180)"/>
                </marker>
                <marker id="arrowhead-nonvoters~tidy.1.1.markerEnd" refX="9.36" refY="3.41" overflow="visible" markerUnits="userSpaceOnUse" markerWidth="9.36" markerHeight="6.81" orient="auto">
                  <path d="M 0 0 L 9.36 3.41 L 0 6.81" stroke="rgb(0,0,0)" fill="none" stroke-width="0.75" stroke-dasharray="none" stroke-opacity="1" fill-opacity="1"/>
                </marker>
              </defs>
              <polyline id="arrowhead-nonvoters~tidy.1.1" points="122.08,166.91 129.06,159.94" marker-end="url(#arrowhead-nonvoters~tidy.1.1.markerEnd)" stroke="rgb(0,0,0)" fill="none" stroke-width="0.75" stroke-dasharray="none" stroke-opacity="1" fill-opacity="1"/>
            </g>
          </g>
          <g id="edge-tidy~plot.1">
            <g id="curve-tidy~plot-1.1">
              <polyline id="curve-tidy~plot-1.1.1" points="136.03,126.07 135.79,123.94 135.59,121.65 135.43,119.19 135.3,116.56 135.2,113.8 135.12,111 135.08,108.22 135.05,105.54 135.04,102.98 135.03,100.55 135.03,99.17" stroke="rgb(0,0,0)" stroke-width="0.75" stroke-dasharray="none" stroke-opacity="1" fill="none"/>
            </g>
            <g id="arrowhead-tidy~plot.1">
              <defs>
                <marker id="arrowhead-tidy~plot.1.1.markerStart" refX="-9.36" refY="-3.41" overflow="visible" markerUnits="userSpaceOnUse" markerWidth="9.36" markerHeight="6.81" orient="auto">
                  <path d="M 0 0 L 9.36 3.41 L 0 6.81" stroke="rgb(0,0,0)" fill="none" stroke-width="0.75" stroke-dasharray="none" stroke-opacity="1" fill-opacity="1" transform="rotate(180)"/>
                </marker>
                <marker id="arrowhead-tidy~plot.1.1.markerEnd" refX="9.36" refY="3.41" overflow="visible" markerUnits="userSpaceOnUse" markerWidth="9.36" markerHeight="6.81" orient="auto">
                  <path d="M 0 0 L 9.36 3.41 L 0 6.81" stroke="rgb(0,0,0)" fill="none" stroke-width="0.75" stroke-dasharray="none" stroke-opacity="1" fill-opacity="1"/>
                </marker>
              </defs>
              <polyline id="arrowhead-tidy~plot.1.1" points="135.03,99.17 136.03,89.21" marker-end="url(#arrowhead-tidy~plot.1.1.markerEnd)" stroke="rgb(0,0,0)" fill="none" stroke-width="0.75" stroke-dasharray="none" stroke-opacity="1" fill-opacity="1"/>
            </g>
          </g>
          <g id="edge-tidy~plot.2">
            <g id="curve-tidy~plot-1.2">
              <polyline id="curve-tidy~plot-1.2.1" points="146.99,126.07 147.23,123.94 147.42,121.65 147.59,119.19 147.72,116.56 147.82,113.8 147.9,111 147.94,108.22 147.97,105.54 147.98,102.98 147.98,100.55 147.99,99.17" stroke="rgb(0,0,0)" stroke-width="0.75" stroke-dasharray="none" stroke-opacity="1" fill="none"/>
            </g>
            <g id="arrowhead-tidy~plot.2">
              <defs>
                <marker id="arrowhead-tidy~plot.2.1.markerStart" refX="-9.36" refY="-3.41" overflow="visible" markerUnits="userSpaceOnUse" markerWidth="9.36" markerHeight="6.81" orient="auto">
                  <path d="M 0 0 L 9.36 3.41 L 0 6.81" stroke="rgb(0,0,0)" fill="none" stroke-width="0.75" stroke-dasharray="none" stroke-opacity="1" fill-opacity="1" transform="rotate(180)"/>
                </marker>
                <marker id="arrowhead-tidy~plot.2.1.markerEnd" refX="9.36" refY="3.41" overflow="visible" markerUnits="userSpaceOnUse" markerWidth="9.36" markerHeight="6.81" orient="auto">
                  <path d="M 0 0 L 9.36 3.41 L 0 6.81" stroke="rgb(0,0,0)" fill="none" stroke-width="0.75" stroke-dasharray="none" stroke-opacity="1" fill-opacity="1"/>
                </marker>
              </defs>
              <polyline id="arrowhead-tidy~plot.2.1" points="147.99,99.17 146.99,89.21" marker-end="url(#arrowhead-tidy~plot.2.1.markerEnd)" stroke="rgb(0,0,0)" fill="none" stroke-width="0.75" stroke-dasharray="none" stroke-opacity="1" fill-opacity="1"/>
            </g>
          </g>
          <g id="edge-population~tidy.1">
            <g id="curve-population~tidy-1.1">
              <polyline id="curve-population~tidy-1.1.1" points="186.84,197.8 185.12,195.84 183.34,193.75 181.46,191.51 179.49,189.12 177.42,186.6 175.29,183.99 173.12,181.33 170.95,178.68 168.81,176.1 166.73,173.6 164.72,171.23 162.77,168.98 160.94,166.91" stroke="rgb(0,0,0)" stroke-width="0.75" stroke-dasharray="none" stroke-opacity="1" fill="none"/>
            </g>
            <g id="arrowhead-population~tidy.1">
              <defs>
                <marker id="arrowhead-population~tidy.1.1.markerStart" refX="-9.36" refY="-3.41" overflow="visible" markerUnits="userSpaceOnUse" markerWidth="9.36" markerHeight="6.81" orient="auto">
                  <path d="M 0 0 L 9.36 3.41 L 0 6.81" stroke="rgb(0,0,0)" fill="none" stroke-width="0.75" stroke-dasharray="none" stroke-opacity="1" fill-opacity="1" transform="rotate(180)"/>
                </marker>
                <marker id="arrowhead-population~tidy.1.1.markerEnd" refX="9.36" refY="3.41" overflow="visible" markerUnits="userSpaceOnUse" markerWidth="9.36" markerHeight="6.81" orient="auto">
                  <path d="M 0 0 L 9.36 3.41 L 0 6.81" stroke="rgb(0,0,0)" fill="none" stroke-width="0.75" stroke-dasharray="none" stroke-opacity="1" fill-opacity="1"/>
                </marker>
              </defs>
              <polyline id="arrowhead-population~tidy.1.1" points="160.94,166.91 153.96,159.94" marker-end="url(#arrowhead-population~tidy.1.1.markerEnd)" stroke="rgb(0,0,0)" fill="none" stroke-width="0.75" stroke-dasharray="none" stroke-opacity="1" fill-opacity="1"/>
            </g>
          </g>
          <g id="nonvoters.1">
            <g id="box-nonvoters.1">
              <polygon id="box-nonvoters.1.1" points="132.04,215.73 131.95,216.86 131.66,217.98 131.18,219.09 130.51,220.19 129.66,221.27 128.62,222.33 127.4,223.37 126.01,224.37 124.45,225.34 122.72,226.27 120.84,227.16 118.81,228.01 116.65,228.8 114.34,229.55 111.92,230.24 109.39,230.87 106.75,231.45 104.01,231.96 101.2,232.4 98.31,232.79 95.37,233.1 92.38,233.35 89.35,233.52 86.29,233.63 83.23,233.66 80.16,233.63 77.11,233.52 74.08,233.35 71.09,233.1 68.14,232.79 65.26,232.4 62.44,231.96 59.71,231.45 57.07,230.87 54.53,230.24 52.11,229.55 49.81,228.8 47.64,228.01 45.61,227.16 43.73,226.27 42.01,225.34 40.45,224.37 39.06,223.37 37.84,222.33 36.8,221.27 35.94,220.19 35.28,219.09 34.8,217.98 34.51,216.86 34.41,215.73 34.51,214.61 34.8,213.48 35.28,212.37 35.94,211.27 36.8,210.19 37.84,209.13 39.06,208.1 40.45,207.09 42.01,206.12 43.73,205.19 45.61,204.3 47.64,203.46 49.81,202.66 52.11,201.91 54.53,201.22 57.07,200.59 59.71,200.02 62.44,199.5 65.26,199.06 68.14,198.68 71.09,198.36 74.08,198.12 77.11,197.94 80.16,197.83 83.23,197.8 86.29,197.83 89.35,197.94 92.38,198.12 95.37,198.36 98.31,198.68 101.2,199.06 104.01,199.5 106.75,200.02 109.39,200.59 111.92,201.22 114.34,201.91 116.65,202.66 118.81,203.46 120.84,204.3 122.72,205.19 124.45,206.12 126.01,207.09 127.4,208.1 128.62,209.13 129.66,210.19 130.51,211.27 131.18,212.37 131.66,213.48 131.95,214.61 132.04,215.73" stroke="rgb(0,0,0)" fill="none" stroke-opacity="1" fill-opacity="0"/>
            </g>
            <g id="label-nonvoters.1">
              <g id="label-nonvoters.1.1" transform="translate(83.23, 215.73)" stroke-width="0.1">
                <g id="label-nonvoters.1.1.scale" transform="scale(1, -1)">
                  <text x="0" y="0" id="label-nonvoters.1.1.text" text-anchor="middle" stroke="rgb(0,0,0)" font-size="14" fill="rgb(0,0,0)" stroke-opacity="1" fill-opacity="1">
                    <tspan id="label-nonvoters.1.1.tspan.1" dy="5.03" x="0">nonvoters</tspan>
                  </text>
                </g>
              </g>
            </g>
          </g>
          <g id="tidy.1">
            <g id="box-tidy.1">
              <polygon id="box-tidy.1.1" points="168.91,144 168.85,145.13 168.69,146.25 168.43,147.36 168.06,148.46 167.59,149.54 167.02,150.6 166.35,151.64 165.58,152.64 164.72,153.61 163.77,154.54 162.73,155.43 161.62,156.28 160.42,157.07 159.15,157.82 157.82,158.51 156.42,159.14 154.97,159.71 153.46,160.23 151.91,160.67 150.32,161.06 148.7,161.37 147.05,161.62 145.38,161.79 143.7,161.9 142.01,161.93 140.32,161.9 138.64,161.79 136.97,161.62 135.32,161.37 133.7,161.06 132.11,160.67 130.55,160.23 129.05,159.71 127.59,159.14 126.2,158.51 124.86,157.82 123.59,157.07 122.4,156.28 121.28,155.43 120.25,154.54 119.3,153.61 118.44,152.64 117.67,151.64 117,150.6 116.42,149.54 115.95,148.46 115.58,147.36 115.32,146.25 115.16,145.13 115.11,144 115.16,142.87 115.32,141.75 115.58,140.64 115.95,139.54 116.42,138.46 117,137.4 117.67,136.36 118.44,135.36 119.3,134.39 120.25,133.46 121.28,132.57 122.4,131.72 123.59,130.93 124.86,130.18 126.2,129.49 127.59,128.86 129.05,128.29 130.55,127.77 132.11,127.33 133.7,126.94 135.32,126.63 136.97,126.38 138.64,126.21 140.32,126.1 142.01,126.07 143.7,126.1 145.38,126.21 147.05,126.38 148.7,126.63 150.32,126.94 151.91,127.33 153.46,127.77 154.97,128.29 156.42,128.86 157.82,129.49 159.15,130.18 160.42,130.93 161.62,131.72 162.73,132.57 163.77,133.46 164.72,134.39 165.58,135.36 166.35,136.36 167.02,137.4 167.59,138.46 168.06,139.54 168.43,140.64 168.69,141.75 168.85,142.87 168.91,144" stroke="rgb(0,0,0)" fill="none" stroke-opacity="1" fill-opacity="0"/>
            </g>
            <g id="label-tidy.1">
              <g id="label-tidy.1.1" transform="translate(142.01, 144)" stroke-width="0.1">
                <g id="label-tidy.1.1.scale" transform="scale(1, -1)">
                  <text x="0" y="0" id="label-tidy.1.1.text" text-anchor="middle" stroke="rgb(0,0,0)" font-size="14" fill="rgb(0,0,0)" stroke-opacity="1" fill-opacity="1">
                    <tspan id="label-tidy.1.1.tspan.1" dy="5.03" x="0">tidy</tspan>
                  </text>
                </g>
              </g>
            </g>
          </g>
          <g id="population.1">
            <g id="box-population.1">
              <polygon id="box-population.1.1" points="253.59,215.73 253.49,216.86 253.18,217.98 252.67,219.09 251.96,220.19 251.05,221.27 249.95,222.33 248.66,223.37 247.18,224.37 245.52,225.34 243.7,226.27 241.7,227.16 239.55,228.01 237.25,228.8 234.81,229.55 232.23,230.24 229.54,230.87 226.74,231.45 223.84,231.96 220.85,232.4 217.79,232.79 214.67,233.1 211.49,233.35 208.28,233.52 205.04,233.63 201.78,233.66 198.53,233.63 195.29,233.52 192.08,233.35 188.9,233.1 185.77,232.79 182.71,232.4 179.73,231.96 176.83,231.45 174.02,230.87 171.33,230.24 168.76,229.55 166.32,228.8 164.02,228.01 161.87,227.16 159.87,226.27 158.04,225.34 156.39,224.37 154.91,223.37 153.62,222.33 152.51,221.27 151.61,220.19 150.9,219.09 150.39,217.98 150.08,216.86 149.98,215.73 150.08,214.61 150.39,213.48 150.9,212.37 151.61,211.27 152.51,210.19 153.62,209.13 154.91,208.1 156.39,207.09 158.04,206.12 159.87,205.19 161.87,204.3 164.02,203.46 166.32,202.66 168.76,201.91 171.33,201.22 174.02,200.59 176.83,200.02 179.73,199.5 182.71,199.06 185.77,198.68 188.9,198.36 192.08,198.12 195.29,197.94 198.53,197.83 201.78,197.8 205.04,197.83 208.28,197.94 211.49,198.12 214.67,198.36 217.79,198.68 220.85,199.06 223.84,199.5 226.74,200.02 229.54,200.59 232.23,201.22 234.81,201.91 237.25,202.66 239.55,203.46 241.7,204.3 243.7,205.19 245.52,206.12 247.18,207.09 248.66,208.1 249.95,209.13 251.05,210.19 251.96,211.27 252.67,212.37 253.18,213.48 253.49,214.61 253.59,215.73" stroke="rgb(0,0,0)" fill="none" stroke-opacity="1" fill-opacity="0"/>
            </g>
            <g id="label-population.1">
              <g id="label-population.1.1" transform="translate(201.78, 215.73)" stroke-width="0.1">
                <g id="label-population.1.1.scale" transform="scale(1, -1)">
                  <text x="0" y="0" id="label-population.1.1.text" text-anchor="middle" stroke="rgb(0,0,0)" font-size="14" fill="rgb(0,0,0)" stroke-opacity="1" fill-opacity="1">
                    <tspan id="label-population.1.1.tspan.1" dy="5.03" x="0">population</tspan>
                  </text>
                </g>
              </g>
            </g>
          </g>
          <g id="plot.1">
            <g id="box-plot.1">
              <polygon id="box-plot.1.1" points="168.91,72.27 168.85,73.39 168.69,74.52 168.43,75.63 168.06,76.73 167.59,77.81 167.02,78.87 166.35,79.9 165.58,80.91 164.72,81.88 163.77,82.81 162.73,83.7 161.62,84.54 160.42,85.34 159.15,86.09 157.82,86.78 156.42,87.41 154.97,87.98 153.46,88.5 151.91,88.94 150.32,89.32 148.7,89.64 147.05,89.88 145.38,90.06 143.7,90.17 142.01,90.2 140.32,90.17 138.64,90.06 136.97,89.88 135.32,89.64 133.7,89.32 132.11,88.94 130.55,88.5 129.05,87.98 127.59,87.41 126.2,86.78 124.86,86.09 123.59,85.34 122.4,84.54 121.28,83.7 120.25,82.81 119.3,81.88 118.44,80.91 117.67,79.9 117,78.87 116.42,77.81 115.95,76.73 115.58,75.63 115.32,74.52 115.16,73.39 115.11,72.27 115.16,71.14 115.32,70.02 115.58,68.91 115.95,67.81 116.42,66.73 117,65.67 117.67,64.63 118.44,63.63 119.3,62.66 120.25,61.73 121.28,60.84 122.4,59.99 123.59,59.2 124.86,58.45 126.2,57.76 127.59,57.13 129.05,56.55 130.55,56.04 132.11,55.6 133.7,55.21 135.32,54.9 136.97,54.65 138.64,54.48 140.32,54.37 142.01,54.34 143.7,54.37 145.38,54.48 147.05,54.65 148.7,54.9 150.32,55.21 151.91,55.6 153.46,56.04 154.97,56.55 156.42,57.13 157.82,57.76 159.15,58.45 160.42,59.2 161.62,59.99 162.73,60.84 163.77,61.73 164.72,62.66 165.58,63.63 166.35,64.63 167.02,65.67 167.59,66.73 168.06,67.81 168.43,68.91 168.69,70.02 168.85,71.14 168.91,72.27" stroke="rgb(0,0,0)" fill="none" stroke-opacity="1" fill-opacity="0"/>
            </g>
            <g id="label-plot.1">
              <g id="label-plot.1.1" transform="translate(142.01, 72.27)" stroke-width="0.1">
                <g id="label-plot.1.1.scale" transform="scale(1, -1)">
                  <text x="0" y="0" id="label-plot.1.1.text" text-anchor="middle" stroke="rgb(0,0,0)" font-size="14" fill="rgb(0,0,0)" stroke-opacity="1" fill-opacity="1">
                    <tspan id="label-plot.1.1.tspan.1" dy="5.03" x="0">plot</tspan>
                  </text>
                </g>
              </g>
            </g>
          </g>
        </g>
      </g>
    </g>
  </g>
</svg>